<mxfile host="app.diagrams.net" modified="2023-07-21T08:23:21.992Z" agent="Mozilla/5.0 (Macintosh; Intel Mac OS X 10_15_7) AppleWebKit/537.36 (KHTML, like Gecko) Chrome/114.0.0.0 Safari/537.36" version="21.2.8" etag="kB7Lgi5z1XpxiyQHINFG" type="github">
  <diagram name="Page-1" id="wI1QPEhmVzY0W1mr8T08">
    <mxGraphModel>
      <root>
        <mxCell id="0" />
        <mxCell id="1" parent="0" />
      </root>
    </mxGraphModel>
  </diagram>
</mxfile>
